<svg xmlns="http://www.w3.org/2000/svg" viewBox="0 0 460 150" width="460" height="150" role="img" aria-labelledby="title desc">
  <title id="title">轉角遇到貓</title>
  <desc id="desc">記錄每一次街角與貓相遇</desc>
  <defs>
    <style>
      .brand-text { font-family: 'Noto Sans TC', 'M PLUS Rounded 1c', 'PingFang TC', sans-serif; }
    </style>
  </defs>
  <g transform="translate(26 18)">
    <path d="M21 45 8 8l34 23 34-23-13 37c8 8 13 19 13 32 0 27-19 45-43 45S-10 104-10 77c0-13 5-24 13-32Z" fill="#fffdf2" stroke="#221915" stroke-width="4" stroke-linejoin="round"/>
    <path d="M21 45 8 8l34 23 34-23-13 37" fill="none" stroke="#2f5fb3" stroke-width="5" stroke-linecap="round" stroke-linejoin="round"/>
    <path d="M17 78c9 7 41 7 50 0" stroke="#221915" stroke-width="4" stroke-linecap="round"/>
    <circle cx="28" cy="65" r="5" fill="#221915"/>
    <circle cx="56" cy="65" r="5" fill="#221915"/>
    <path d="M42 72 36 78h12Z" fill="#2f5fb3"/>
    <path d="M2 73h20M1 84h22M62 73h20M61 84h22" stroke="#221915" stroke-width="3" stroke-linecap="round"/>
  </g>
  <text x="132" y="65" class="brand-text" font-size="42" font-weight="900" fill="#221915">轉角遇到貓</text>
  <text x="134" y="97" class="brand-text" font-size="14" font-weight="700" letter-spacing="5" fill="#2f5fb3">FOUND CAT JOURNAL</text>
  <text x="135" y="121" class="brand-text" font-size="13" font-weight="600" letter-spacing="2" fill="#6b6258">記錄每一次街角與貓相遇</text>
</svg>
